<svg xmlns="http://www.w3.org/2000/svg" width="80" height="80" viewBox="0 0 80 80">
  <g id="Group_143" data-name="Group 143" transform="translate(-1988 -5546)">
    <rect id="Rectangle_26" data-name="Rectangle 26" width="80" height="80" transform="translate(1988 5546)" fill="none"/>
    <path id="Icon_awesome-check-double" data-name="Icon awesome-check-double" d="M58.588,20.28l-4.594-4.594a2.773,2.773,0,0,0-3.933,0L22.277,43.471,9.353,30.535a2.773,2.773,0,0,0-3.933,0L.814,35.141a2.787,2.787,0,0,0,0,3.944l19.49,19.5a2.773,2.773,0,0,0,3.933,0L58.577,24.224A2.8,2.8,0,0,0,58.588,20.28Zm-37.623,12.3a1.842,1.842,0,0,0,2.622,0L47.718,8.424a1.863,1.863,0,0,0,0-2.622L42.474.546a1.842,1.842,0,0,0-2.622,0L22.277,18.122l-6.427-6.439a1.842,1.842,0,0,0-2.622,0L7.972,16.939a1.863,1.863,0,0,0,0,2.622Z" transform="translate(1998.304 5556.002)" fill="#fb8500"/>
  </g>
</svg>
