<svg xmlns="http://www.w3.org/2000/svg" width="80" height="80" viewBox="0 0 80 80">
  <g id="Group_142" data-name="Group 142" transform="translate(-2319 -5422)">
    <rect id="Rectangle_27" data-name="Rectangle 27" width="80" height="80" transform="translate(2319 5422)" fill="none"/>
    <path id="Icon_awesome-dollar-sign" data-name="Icon awesome-dollar-sign" d="M24.272,27.081,11.74,23.415a3.422,3.422,0,0,1,.963-6.706H20.4a7.082,7.082,0,0,1,3.968,1.218,1.809,1.809,0,0,0,2.263-.232l4.038-3.945a1.881,1.881,0,0,0-.209-2.843A16.407,16.407,0,0,0,20.419,7.426V1.856A1.862,1.862,0,0,0,18.563,0H14.85a1.862,1.862,0,0,0-1.856,1.856V7.426H12.7A12.713,12.713,0,0,0,.056,21.3,13.282,13.282,0,0,0,9.78,32.511l11.893,3.481a3.422,3.422,0,0,1-.963,6.706H13.017A7.082,7.082,0,0,1,9.049,41.48a1.809,1.809,0,0,0-2.263.232L2.748,45.657A1.881,1.881,0,0,0,2.957,48.5a16.407,16.407,0,0,0,10.036,3.481V57.55a1.862,1.862,0,0,0,1.856,1.856h3.713a1.862,1.862,0,0,0,1.856-1.856V51.958a13.107,13.107,0,0,0,12.264-8.435,12.741,12.741,0,0,0-8.412-16.441Z" transform="translate(2342.293 5432.297)" fill="#fb8500"/>
  </g>
</svg>
