<svg xmlns="http://www.w3.org/2000/svg" width="80" height="80" viewBox="0 0 80 80">
  <g id="Group_141" data-name="Group 141" transform="translate(-1877 -5365)">
    <rect id="Rectangle_25" data-name="Rectangle 25" width="80" height="80" transform="translate(1877 5365)" fill="none"/>
    <path id="Icon_awesome-hands-helping" data-name="Icon awesome-hands-helping" d="M56.615,22.273H38.981v6.5a8.353,8.353,0,1,1-16.706,0V14.663l-7.529,4.524a7.409,7.409,0,0,0-3.608,6.357v5.487l-9.281,5.36A3.7,3.7,0,0,0,.5,41.462L9.781,57.541a3.714,3.714,0,0,0,5.07,1.357l12-6.926H42.693a7.432,7.432,0,0,0,7.425-7.425h1.856a3.708,3.708,0,0,0,3.712-3.712V33.41h.928A2.778,2.778,0,0,0,59.4,30.626V25.058A2.778,2.778,0,0,0,56.615,22.273ZM73.75,17.934,64.469,1.855A3.714,3.714,0,0,0,59.4.5l-12,6.926H35.547a7.48,7.48,0,0,0-3.933,1.125l-3.886,2.425a3.687,3.687,0,0,0-1.74,3.144V28.77a4.64,4.64,0,1,0,9.281,0V18.561H56.615a6.5,6.5,0,0,1,6.5,6.5v3.306L72.392,23a3.716,3.716,0,0,0,1.357-5.07Z" transform="translate(1879.878 5375.302)" fill="#fb8500"/>
  </g>
</svg>
