<svg xmlns="http://www.w3.org/2000/svg" width="100" height="100" viewBox="0 0 100 100">
  <g id="Group_137" data-name="Group 137" transform="translate(-2279 -1254)">
    <g id="Group_133" data-name="Group 133">
      <rect id="Rectangle_22" data-name="Rectangle 22" width="100" height="100" transform="translate(2279 1254)" fill="rgba(250,250,250,0)"/>
      <g id="Group_129" data-name="Group 129" transform="translate(-184.602 -29.926)">
        <g id="Faucets_Icon" data-name="Faucets Icon" transform="translate(2475.914 1304.312)">
          <path id="Path_16" data-name="Path 16" d="M65.241,39.513a25.737,25.737,0,0,0-6.947-14.4C49.469,15.993,36.461,15.6,34.979,15.6h-.2a1.674,1.674,0,0,1-1.633-1.36v-3.7a1.674,1.674,0,0,0-1.658-1.674H17.156a1.674,1.674,0,0,0-1.633,1.674v2.72h0v.776a1.686,1.686,0,0,1-1.674,1.674H8.726a1.674,1.674,0,0,1-1.658-1.674v-.776H3.136V36.1h3.97v-.776A1.674,1.674,0,0,1,8.726,33.65h5a1.523,1.523,0,0,1,.6.122c1.756,1.875,5.235,3.153,9.233,3.153,4.582,0,8.47-1.674,9.883-4h1.36c1.577,0,7.968.217,11.46,3.835A8.552,8.552,0,0,1,48.2,39.9a4.419,4.419,0,0,0,1.9,8.417H64.252a4.431,4.431,0,0,0,.939-8.756Z" transform="translate(6.719 10.907)" fill="#219ebc" stroke="rgba(0,0,0,0)" stroke-width="1"/>
          <path id="Path_17" data-name="Path 17" d="M8.987,10.9a5.534,5.534,0,0,0,3.6-1.237H16.4a5.684,5.684,0,0,0,2.487,2V17.1a6.134,6.134,0,0,0-3.643,3.888H28.754A6.134,6.134,0,0,0,25.111,17.1v-5.44A5.75,5.75,0,0,0,27.6,9.671H31.4a5.587,5.587,0,0,0,3.6,1.225c2.72,0,4.855-1.674,4.855-3.74S37.717,3.408,35,3.408a5.264,5.264,0,0,0-4.08,1.79H27.655A7.261,7.261,0,0,0,17.42,4.247a6.3,6.3,0,0,0-.952.952H13.205A5.264,5.264,0,0,0,9.056,3.4C6.337,3.4,4.2,5.076,4.2,7.155S6.308,10.9,8.987,10.9Z" transform="translate(8.999 -2.569)" fill="#8ecae6" stroke="rgba(0,0,0,0)" stroke-width="1"/>
          <path id="Path_18" data-name="Path 18" d="M0,34.033H8.333v4.921a1.674,1.674,0,0,1-1.674,1.674h-5A1.658,1.658,0,0,1,0,38.955ZM6.662,8.965h-5A1.658,1.658,0,0,0,0,10.623v4.921H8.336V10.608A1.674,1.674,0,0,0,6.662,8.965ZM0,31.383H8.336V18.2H0Z" transform="translate(0.002 11.123)" fill="#fb8500" stroke="rgba(0,0,0,0)" stroke-width="1"/>
        </g>
      </g>
    </g>
  </g>
</svg>
