<svg xmlns="http://www.w3.org/2000/svg" width="76.906" height="75.303" viewBox="0 0 76.906 75.303">
  <g id="Group_69" data-name="Group 69" transform="translate(-35.341 0.545)">
    <g id="Plumbing_Repairs_Icon" data-name="Plumbing Repairs Icon" transform="translate(40.349 2.064)">
      <path id="Path_22" data-name="Path 22" d="M61.214,22.791,72.15,11.843a14.547,14.547,0,0,1-19.44,17.113l-7.933,7.933a2.446,2.446,0,0,1-.16-.437,3.225,3.225,0,0,1,.754-2.538l1.614-1.627-5.21-5.21-3.715,3.728-1.825-1.825,8.253-8.253a14.547,14.547,0,0,1,17.1-19.44L50.649,12.223a1.627,1.627,0,0,0,0,2.274l8.291,8.291a1.627,1.627,0,0,0,2.274,0ZM35.336,46.33l-9.441,9.428a12.591,12.591,0,1,1-8.225-8.225l9.745-9.745,1.774,1.834-3.715,3.715,3.583,3.583,1.561,1.495,1.614-1.429a3.279,3.279,0,0,1,2.644-.82,3.041,3.041,0,0,1,.459.16ZM19.573,55.017a1.149,1.149,0,0,0-1.149-1.149H16.216l-1.573-1.577a1.178,1.178,0,0,0-1.627,0l-1.561,1.573H9.221a1.165,1.165,0,0,0-1.137,1.149v2.22L6.524,58.795a1.149,1.149,0,0,0,0,1.627l1.507,1.561V64.2h0A1.165,1.165,0,0,0,9.181,65.34H11.4L12.962,66.9a1.149,1.149,0,0,0,1.627,0l1.573-1.561H18.37A1.149,1.149,0,0,0,19.519,64.2v-2.22l1.63-1.586a1.178,1.178,0,0,0,0-1.627l-1.573-1.561v-2.22Z" transform="translate(-1.295 -0.844)" fill="#fb8500" stroke="rgba(0,0,0,0)" stroke-width="1"/>
    </g>
    <path id="Path_23" data-name="Path 23" d="M22.243,10.232a.926.926,0,0,0,0-1.322,1.058,1.058,0,0,0-.276-.2L8.054.408a1.639,1.639,0,0,0-1.919.2L.4,6.344A1.652,1.652,0,0,0,.224,8.25L8.528,22.2a.926.926,0,0,0,1.2.449,1.1,1.1,0,0,0,.276-.21l3.345-3.345L35.27,41.029l-3.715,3.715.276.292,1.018,1,.663.663h0a5.515,5.515,0,0,1,9.255,4.469h0a9.679,9.679,0,0,0,0,1.957h0a9.255,9.255,0,0,0,1.215,3.583l.2.3A8.967,8.967,0,0,0,45.345,58.5L57.722,70.864a9.255,9.255,0,1,0,13-13l-12.314-12.3a8.953,8.953,0,0,0-1.467-1.178l-.3-.2a9.073,9.073,0,0,0-3.583-1.2h-.066a9.547,9.547,0,0,0-1.944,0h0a5.5,5.5,0,0,1-4.535-9.24h0l-.663-.663-1-1-.292-.292-3.715,3.728L18.886,13.539ZM55.156,60.177l1.215,1.231L63.064,68.1a1.322,1.322,0,0,1,.144,1.8h0a1.322,1.322,0,0,1-1.8-.144L54.44,62.8l-.992-.992-6.9-6.9a1.322,1.322,0,0,1-.144-1.8h0a1.322,1.322,0,0,1,1.8.144Zm11.9,5.515a1.322,1.322,0,0,1,.144,1.8h0a1.322,1.322,0,0,1-1.8-.16L48.966,50.893a1.322,1.322,0,0,1-.144-1.8h0a1.322,1.322,0,0,1,1.8.16Zm-14.2-19h0a1.322,1.322,0,0,1,1.8.16l6.9,6.89,1.215,1.231,6.705,6.693a1.322,1.322,0,0,1,.144,1.8h0a1.322,1.322,0,0,1-1.812-.144L60.9,56.4l-.992-.992-6.9-6.9A1.322,1.322,0,0,1,52.9,46.65Z" transform="translate(35.885 -0.187)" fill="#219ebc" stroke="rgba(0,0,0,0)" stroke-width="1"/>
  </g>
</svg>
