<svg xmlns="http://www.w3.org/2000/svg" width="119.895" height="64.514" viewBox="0 0 119.895 64.514">
  <g id="Group_126" data-name="Group 126" transform="translate(-3176 254)">
    <g id="Layer_x0020_1" transform="translate(3175.98 -254)">
      <g id="_2370777070880" transform="translate(0.02 0)">
        <g id="Layer_x0020_1_0" transform="translate(0 0)">
          <g id="_2241228441328">
            <path id="Path_6" data-name="Path 6" d="M58.288,9.239c-.562.281-.231.205-1.074.205,0,2.788-.231,2.687.843,2.788,0,2.2.205,3.555.205,5.785,0,3.555.1,5.6-.18,9.034-.076.947.18,1.178.18,2.33v5.144c0,1.895-.205,3.123-.205,5.144l.205,5.144c.18,3.148.332,4.25-1.074,4.275v2.788h1.077c0,2.842-1.895,5.144-3.865,5.144H53.324a4.079,4.079,0,0,1-3.865-3.865V51.877h.846c0-2.431.281-2.892-1.074-2.993a6.555,6.555,0,0,0-2.075-4.351c-4.585-4.427-12.9-1.434-12.9,4.992-1.3.025-1.074-.1-1.074,2.788h1.074c0,.189.006.4.006.6a32.465,32.465,0,0,1-.366,4.825c-.461,1.153-2.176,1.2-3.71,1.2,0-1.509.18-1.279-2.356-1.279-.714,0-.613.385-.641,1.074-1.383,0-1.509-.1-1.509-1.509h.846c0-3.224,1.048-2.993-1.715-2.993v-.205c3.814,0,3.429.486,3.429-1.92H24.612c-.051-2.1-2.611-2.075-2.788,0H18.189c0,2.381-.385,1.92,3.429,1.92l-1.715.205v2.993h1.074c-.129,1.614-.815,1.509-1.715,1.509V57.658c-3.249,0-2.993-.281-2.993,1.279-1.92,0-2.968-.205-4.913-.205H.02V63.67H16.3c.155.587.306.793.742.843h2.226V63.67h7.91c.155.613.306.815.767.843h1.614c.613,0,.562-.256.613-.843,2.637,0,4.686-.306,6.142-1.56,3.2-2.738,2.637-5.475,2.637-9.8h1.08c0-2.226.281-2.662-1.074-2.788A2.863,2.863,0,0,1,44.3,48.65c-.692.947-.843.051-.843,2.356,0,.692.436.793,1.074.843,0,5.861,3.865,9.855,8.548,9.855,3.148,0,5.2-.407,7.449-2.842A9.821,9.821,0,0,0,62.948,52.4c0-.183-.006-.373-.016-.556,1.3-.025,1.074.1,1.074-2.788H62.933V12.2c1.329-.1,1.074-.562,1.074-2.788H62.933c0-2.277-.076-3.634,2.788-3.634.025,1.254-.076,1.074,2.356,1.074.714,0,.613-.385.641-1.074h7.7V1.074h-7.7C68.7.23,68.746.054,68.108,0H66.6c-.815,0-.537.562-1.228.916-.641.306-2.507-.1-4.913,1.74-2.2,1.692-2.226,4.3-2.226,6.555l.076.025Z" transform="translate(-0.02 0)" fill="#fafafa" fill-rule="evenodd"/>
            <path id="Path_7" data-name="Path 7" d="M8.483,41.648c0-11.055,14.97-10.9,14.97-.436,0,11.746-14.97,10.979-14.97.436ZM3.57,53.856H8.483V50.629c1.153.767,2.046,2.482,5.5,3.274A11.724,11.724,0,0,0,28.37,42.495c0-3.966-.508-7.294-3.148-9.905-2.867-2.842-4.837-3.584-9.034-3.584-3.994,0-5.706,2.1-7.7,3.429V21.07H3.57Z" transform="translate(-2.449 -14.417)" fill="#023047" fill-rule="evenodd"/>
            <path id="Path_8" data-name="Path 8" d="M226.254,66.9h-.082a7.418,7.418,0,0,1-7.417-7.294c0-2.687.025-4.992,2.125-7.089a7.579,7.579,0,0,1,8.292-1.434c5.22,2.356,5.4,10.111,2.381,13.385a7.65,7.65,0,0,1-5.3,2.406Zm-12.618-8.368c0,11.44,11.26,15.943,18.324,10.619.666-.508.916-.973,1.585-1.408v3.224h4.913V46.548h-4.913v2.993c-1.1-.742-.767-1.127-3.072-2.305-4.4-2.2-10.6-1.228-13.8,2.561a13.538,13.538,0,0,0-3.047,8.551v.177h0Z" transform="translate(-146.18 -31.527)" fill="#023047" fill-rule="evenodd"/>
            <path id="Path_9" data-name="Path 9" d="M103.147,66.884c-8.011,0-9.11-10.493-4.913-14.56,3.941-3.814,12.387-2.024,12.387,6.2.006.155.013.309.013.464a8.606,8.606,0,0,1-1.983,5.5,7.709,7.709,0,0,1-5.529,2.406l.025,0ZM90.94,57.67c0,4.25.486,7.269,3.584,10.338A11.558,11.558,0,0,0,98,70.31c7.679,3.429,17.556-1.97,17.556-10.723,0-4.171-.436-6.959-3.48-10.007-7.269-7.266-21.14-2.662-21.14,8.087Z" transform="translate(-62.231 -31.515)" fill="#023047" fill-rule="evenodd"/>
            <path id="Path_10" data-name="Path 10" d="M314.853,48.706v-2.15H309.94V70.971h4.913V58.122c0-9.956,9.135-8.728,11.339-5.144,1.639,2.637,1.074,14.1,1.074,17.992h4.708V55.539a9.62,9.62,0,0,0-5.065-8.447c-2.33-1.153-3.634-1-6.066-1-2.738,0-4.351,1.459-5.99,2.561v.051Z" transform="translate(-212.079 -31.535)" fill="#023047" fill-rule="evenodd"/>
          </g>
        </g>
      </g>
      <rect id="Rectangle_10" data-name="Rectangle 10" width="43.894" height="4.699" transform="translate(76.021 1.074)" fill="#fafafa"/>
    </g>
  </g>
</svg>
