<svg xmlns="http://www.w3.org/2000/svg" width="2066" height="1126.732" viewBox="0 0 2066 1126.732">
  <path id="Intersection_1" data-name="Intersection 1" d="M2014.645,1295.227c-28.337-36.271-39.906-58.742-67.872-94.536-28.355,22.154-19.513,22.932-66.866-37.678l19.524-15.254c-13.05-16.7-21.259-31.041-52.409-10.547l15.661,20.044-54.387,42.493-28.7-29.071c55.556,71.109,58.329,57.414,15.1,91.189l-52.945-67.767c-40.263,26.076-78.015-21.284-40.643-52.02l-52.946-67.768c43.7-34.139,29.272-34.4,84.828,36.712l3.719-2.905c-40.27-51.542-29.165-28.707,29.4-74.468l12.3,15.75c25.567-19.975,25.562-23.815,5.427-49.586-12.923,9.328-18.4,16.685-28.845,3.322-36.913-47.246-38.487-40.637-11.061-62.064-22.372-28.635-48.283-59.883-75.913-52.132-17.116,4.919-83.779,54.7-103.767,70.313l15.66,20.045c-52.528,41.039-46.849,43.519-66.329,19.542C1396.91,1090,1221.342,977.387,1235.019,829.13c2.939-30.732,16.748-75.337,48.823-100.4-17.9-26.746-5.433-28.035,38.727-62.536l12.3,15.749,23.242-18.158c36.258-28.328,42.6-90.157,13.891-126.9l-15.66-20.045c-28.711-36.748-98.14-39.377-149.738.936l15.661,20.044L1171.6,577.407c-20.973-25.886-38.723-7.405-93.29,40.606L987.858,694.83c-36.723,28.691-62.018,42.306-96.417,69.182l-93.435,73c-20.918,16.343-21.373,24.384-39.692,36.39-66.39,43.416-102.087,74.38-166.7,124.862-40.442,31.6-62.1,54.663-102.074,85.9,13.8,21.5,12.3,15.749-38.363,55.336-12.3-15.749-6.063-10.634-19.38-17.138l.654,1.795c-40.907,31.959-88.695,68.527-151.441,51.454-68.518-18.712-88.3-59.361-103.2-66.934-7.038-3.314-12.192-2.832-16.707-2.351-6.117.652-11.06,1.3-17.924-7.483l-1.492-1.909-20.506-26.249c-8.393-12.657-4.392-14.244,10.575-26.707l-21.237-27.182V840.49l106.77,136.658c12.923-9.328,18.4-16.685,28.845-3.322,35.421,45.338,37.184,40.886,14.78,59.16,41.76,53.45,65.279,32.771,106.65.448L351.9,1013.389c40.442-31.6,45.081-42.906,66.329-19.543l669.384-522.979-15.661-20.045c52.528-41.039,46.849-43.518,66.329-19.542,53.457-41.765,106.48-60.135,162.418-54.651,76.973,7.5,114.239,39.864,160.1,98.564,68.234,87.336,52.019,216.054-54.432,299.223,8.392,12.657,12.872,22.223.321,32.028-31.359,24.5-31.33,21.886-40.828,19.273a47,47,0,0,0-14.243-1.608c-20.3,65.046,36.905,113.349,93.733,87.4-17.437-27.11-5.434-28.034,35.008-59.631l15.66,20.045c78.56-61.377,120.1-110.737,216.443-89.942,44.031,9.407,79.438,43.228,117.842,92.384,11.437-7.4,15.34-11.985,24.289-.531l.373.477,1.119,1.431,22,28.158c6.246,8.953,4.766,14.722-4.154,26.3l115.214,147.468,15.34-11.984,1.491,1.908,30.947,39.612c5.409,8.839,3.928,14.609-4.527,25.826l144.12,184.466v184.924Z" transform="translate(-110.518 -375.684)" fill="rgba(33,158,188,0.03)"/>
</svg>
