<svg xmlns="http://www.w3.org/2000/svg" width="1920" height="425" viewBox="0 0 1920 425">
  <g id="Group_140" data-name="Group 140" transform="translate(-2074 -2163)">
    <path id="Path_38" data-name="Path 38" d="M0,214l45.867-21.2c45.867-21.1,137.6-63.5,228.907-85.6,91.52-22.2,182.4-24.2,273.92-13,91.307,11.1,183.04,35.5,274.347,40,91.52,4.5,182.4-10.9,273.92-23.4,91.307-12.5,183.04-22.1,274.347-27,91.52-4.8,182.4-4.8,273.92,8.5,91.307,13.4,183.04,40,228.907,53.4L1920,159V0H0Z" transform="translate(3994 2377) rotate(180)" fill="#219ebc"/>
    <path id="Path_39" data-name="Path 39" d="M0,214l45.867-21.2c45.867-21.1,137.6-63.5,228.907-85.6,91.52-22.2,182.4-24.2,273.92-13,91.307,11.1,183.04,35.5,274.347,40,91.52,4.5,182.4-10.9,273.92-23.4,91.307-12.5,183.04-22.1,274.347-27,91.52-4.8,182.4-4.8,273.92,8.5,91.307,13.4,183.04,40,228.907,53.4L1920,159V0H0Z" transform="translate(2074 2374)" fill="#219ebc"/>
  </g>
</svg>
